<svg xmlns="http://www.w3.org/2000/svg" width="1600" height="1000" viewBox="0 0 1600 1000" role="img" aria-label="和歌山市観光スポット5選。城と海辺を一日で巡る"><defs><linearGradient id="bg" x1="0" y1="0" x2="1" y2="1"><stop offset="0" stop-color="#17201d"/><stop offset="0.52" stop-color="#384438"/><stop offset="1" stop-color="#e7ddc8"/></linearGradient><pattern id="grid" width="72" height="72" patternUnits="userSpaceOnUse"><path d="M 72 0 L 0 0 0 72" fill="none" stroke="rgba(255,255,255,.12)" stroke-width="2"/></pattern></defs><rect width="1600" height="1000" fill="url(#bg)"/><rect width="1600" height="1000" fill="url(#grid)" opacity=".45"/><path d="M160 690 C360 560 510 705 720 585 C900 482 1010 560 1200 420 C1320 332 1430 320 1510 360" fill="none" stroke="#f2ead8" stroke-width="8" stroke-linecap="round" opacity=".82"/><circle cx="365" cy="602" r="18" fill="#f2ead8"/><circle cx="720" cy="585" r="18" fill="#f2ead8"/><circle cx="1080" cy="498" r="18" fill="#f2ead8"/><circle cx="1320" cy="360" r="18" fill="#f2ead8"/><text x="110" y="142" font-family="Arial, 'Noto Sans JP', sans-serif" font-size="30" letter-spacing="7" fill="#f2ead8" opacity=".82">WAKAYAMA GUIDE</text><text x="110" y="238" font-family="Arial, 'Noto Sans JP', sans-serif" font-size="86" font-weight="700" fill="#fffaf0">和歌山市</text><foreignObject x="110" y="290" width="1120" height="230"><div xmlns="http://www.w3.org/1999/xhtml" style="font-family: Arial, 'Noto Sans JP', sans-serif; font-size: 54px; line-height: 1.28; font-weight: 700; color: #fffaf0;">和歌山市観光スポット5選。城と海辺を一日で巡る</div></foreignObject><text x="110" y="850" font-family="Arial, 'Noto Sans JP', sans-serif" font-size="24" letter-spacing="4" fill="#fffaf0" opacity=".7">EDITORIAL GUIDE VISUAL / NOT A SPOT PHOTO</text></svg>